<svg width="22" height="19" viewBox="0 0 22 19" fill="none" xmlns="http://www.w3.org/2000/svg">
<path d="M10.83 6.00006L14 9.16006V9.00006C14 8.20441 13.6839 7.44135 13.1213 6.87874C12.5587 6.31613 11.7956 6.00006 11 6.00006H10.83ZM6.53 6.80006L8.08 8.35006C8.03 8.56006 8 8.77006 8 9.00006C8 9.79571 8.31607 10.5588 8.87868 11.1214C9.44129 11.684 10.2044 12.0001 11 12.0001C11.22 12.0001 11.44 11.9701 11.65 11.9201L13.2 13.4701C12.53 13.8001 11.79 14.0001 11 14.0001C9.67392 14.0001 8.40215 13.4733 7.46447 12.5356C6.52678 11.5979 6 10.3261 6 9.00006C6 8.21006 6.2 7.47006 6.53 6.80006ZM1 1.27006L3.28 3.55006L3.73 4.00006C2.08 5.30006 0.78 7.00006 0 9.00006C1.73 13.3901 6 16.5001 11 16.5001C12.55 16.5001 14.03 16.2001 15.38 15.6601L15.81 16.0801L18.73 19.0001L20 17.7301L2.27 6.10352e-05M11 4.00006C12.3261 4.00006 13.5979 4.52684 14.5355 5.46453C15.4732 6.40221 16 7.67398 16 9.00006C16 9.64006 15.87 10.2601 15.64 10.8201L18.57 13.7501C20.07 12.5001 21.27 10.8601 22 9.00006C20.27 4.61006 16 1.50006 11 1.50006C9.6 1.50006 8.26 1.75006 7 2.20006L9.17 4.35006C9.74 4.13006 10.35 4.00006 11 4.00006Z" fill="#A5AAB7"/>
</svg>
